<svg version="1.1" xmlns="http://www.w3.org/2000/svg" viewBox="0 0 512 512" xml:space="preserve">
  <path fill="#1C72BF" d="M502.865 188.049C473.095 79.648 373.856 0 256 0 114.615 0 0 114.615 0 256c0 117.856 79.648 217.094 188.049 246.865L502.865 188.049z"/>
  <path fill="#30275E" d="M512 256c0-23.529-3.191-46.309-9.135-67.951l-89.458-89.458L98.592 413.408l89.458 89.458c21.641 5.944 44.422 9.135 67.951 9.135C397.385 512 512 397.384 512 256z"/>
  <path fill="#FFF3AD" d="M256 33.391 144.696 256 256 478.609c122.943 0 222.609-99.665 222.609-222.609S378.943 33.391 256 33.391z"/>
  <path fill="#FFF" d="M33.391 256c0 122.943 99.665 222.609 222.609 222.609V33.391C133.057 33.391 33.391 133.057 33.391 256z"/>
  <path fill="#FFD23E" d="M256 66.783 161.391 256 256 445.217c104.501 0 189.217-84.715 189.217-189.217S360.501 66.783 256 66.783z"/>
  <path fill="#FFE376" d="M66.783 256c0 104.503 84.716 189.217 189.217 189.217V66.783C151.499 66.783 66.783 151.497 66.783 256z"/>
  <path fill="#185F9F" d="M176.52 384.702c-2.198 7.329-3.998 19.587-3.998 27.24v13.913s19.942-12.058 27.826-32.751l9.275-60.002-23.188 18.55-9.915 33.05z"/>
  <path fill="#134C7F" d="M224.176 384.702c2.199 7.329 3.998 19.587 3.998 27.24v13.913s-19.942-12.058-27.826-32.751V333.1l13.913 18.551 9.915 33.051z"/>
  <path fill="#5CB2FE" d="m247.919 163.406-69.832-10.262 22.261 203.576h15.427C240.84 321.447 256 275.623 256 225.491c0-21.67-2.827-42.529-8.081-62.085z"/>
  <path fill="#2185DE" d="M152.776 163.406c-5.254 19.556-8.081 40.415-8.081 62.086 0 50.131 15.16 95.955 40.225 131.228h15.427v-47.75l-11.13-11.13 11.13-11.13v-22.261l-11.13-11.13 11.13-11.13v-22.261l-11.13-11.13 11.13-11.13v-44.522l-47.571 10.26z"/>
  <path fill="#2185DE" d="M200.348 75.231c21.76 23.53 38.378 53.838 47.571 88.175-14.147 7.658-30.353 11.999-47.571 11.999l-16.696-50.087 16.696-50.087z"/>
  <path fill="#2598FE" d="M200.348 75.231v100.174c-17.219 0-33.425-4.341-47.571-11.999 9.193-34.337 25.811-64.646 47.571-88.175z"/>
  <polygon fill="#FFF3AD" points="322.783,422.957 289.391,422.957 289.391,400.696 278.261,289.391 333.913,289.391 322.783,400.696"/>
  <polygon fill="#FFF" points="333.913,222.609 278.261,222.609 289.391,111.304 289.391,89.043 322.783,89.043 322.783,111.304"/>
  <polygon fill="#FFF3AD" points="356.174,244.87 339.478,256 322.783,244.87 322.783,111.304 356.174,111.304"/>
  <rect x="322.783" y="244.87" width="33.391" height="155.826" fill="#FFF"/>
  <polygon fill="#FFF3AD" points="289.391,267.13 272.696,289.391 256,267.13 256,111.304 289.391,111.304"/>
  <rect x="256" y="267.13" width="33.391" height="133.565" fill="#FFF"/>
  <g fill="#FFF">
    <rect x="122.435" y="300.522" width="22.261" height="22.261"/>
    <rect x="100.174" y="256" width="22.261" height="22.261"/>
    <rect x="378.435" y="211.478" width="33.391" height="22.261"/>
    <rect x="367.304" y="256" width="22.261" height="22.261"/>
    <rect x="278.261" y="222.609" width="22.261" height="22.261"/>
  </g>
  <g fill="#134C7F">
    <rect x="178.087" y="197.665" width="22.261" height="22.261"/>
    <rect x="178.087" y="242.187" width="22.261" height="22.261"/>
    <rect x="178.087" y="286.709" width="22.261" height="22.261"/>
  </g>
  <g fill="#FFE376">
    <rect x="278.261" y="189.217" width="55.652" height="133.565"/>
    <polygon points="389.565,322.783 345.043,322.783 345.043,189.217 389.565,189.217 389.565,256 378.435,267.13 389.565,278.261"/>
  </g>
</svg>
