<svg xmlns="http://www.w3.org/2000/svg" viewBox="0 0 469.952 469.952" xml:space="preserve">
  <g transform="translate(469.952 0) scale(-1 1)">
    <path fill="#F59B45" d="M58.187 245.246c-32.819 35.004-48.182 83.174-41.752 130.56h82.438c-14.325-43.136-11.225-89.589 8.647-130.56H58.187z"/>
    <path fill="#8A856E" d="M119.962 208.103c-4.142 0-7.5-3.358-7.5-7.5v-43.957c0-4.142 3.358-7.5 7.5-7.5l.001-15c-4.143 0-7.501-3.358-7.501-7.5v-12.5H90.319V134.5l0 95.746h128.116c4.136 0 7.5-3.365 7.5-7.5v-14.643H119.962z"/>
    <path fill="#8A856E" d="M62.462 213.392v16.854h12.857v-35.761c-7.52 2.994-12.857 10.332-12.857 18.907z"/>
    <path fill="#A7A393" d="M127.462 156.646v36.457h98.473v-78.957h-98.473v12.5c0 4.142-3.357 7.5-7.499 7.5v15c4.142 0 7.499 3.358 7.499 7.5z"/>
    <rect x="240.936" y="148.824" width="138.803" height="12.857" fill="#A7A393"/>
    <rect x="240.936" y="114.146" width="214.017" height="19.678" fill="#E3C498"/>
    <path fill="#34150C" d="M462.452 99.146H82.819c-4.142 0-7.5 3.358-7.5 7.5v24.528c-4.937 4.002-11.045 6.179-17.488 6.179-7.436 0-14.427-2.896-19.685-8.154-2.929-2.929-7.678-2.929-10.606 0-2.929 2.929-2.929 7.678 0 10.607 8.091 8.091 18.849 12.547 30.291 12.547 6.129 0 12.057-1.29 17.488-3.721v30.21c-15.905 3.45-27.857 17.626-27.857 34.549v16.854H45.89c-4.142 0-7.5 3.358-7.5 7.5 0 1.948.749 3.716 1.966 5.049C7.767 282.023-6.287 334.043 2.629 384.608c.632 3.584 3.747 6.198 7.386 6.198h99.594c2.491 0 4.82-1.237 6.215-3.302s1.673-4.687.743-6.998c-17.811-44.268-14.927-93.318 7.799-135.26h10.499v15.102c0 15.715 12.785 28.5 28.5 28.5h26.667c15.715 0 28.5-12.785 28.5-28.5v-15.104c12.362-.053 22.404-10.123 22.404-22.498v-46.064h118.803v1.943c0 4.142 3.357 7.5 7.5 7.5s7.5-3.358 7.5-7.5v-1.943h12.5c4.143 0 7.5-3.358 7.5-7.5v-20.357h67.714c4.143 0 7.5-3.358 7.5-7.5v-34.678c0-4.142-3.357-7.5-7.5-7.5zM240.936 161.682v-12.857h138.803v12.857H240.936zM218.435 230.246H90.319v-95.74l0-20.36h22.143v12.5c0 4.142 3.358 7.5 7.5 7.5 4.143 0 7.5-3.358 7.5-7.5v-12.5h98.473v78.957h-98.473v-36.457c0-4.142-3.357-7.5-7.499-7.5-4.143 0-7.501 3.358-7.501 7.5v43.957c0 4.142 3.358 7.5 7.5 7.5h105.973v14.643c0 4.135-3.364 7.5-7.5 7.5zM98.873 375.806H16.435c-6.43-47.385 8.934-95.556 41.752-130.56h49.333c-19.872 40.971-22.972 87.424-8.647 130.56zM75.319 230.246H62.462v-16.854c0-8.575 5.337-15.913 12.857-18.907v35.761zM454.952 133.824H240.936v-19.678h214.017v19.678zM190.032 273.848h-26.667c-7.444 0-13.5-6.056-13.5-13.5v-15.102h15v6.102c0 4.142 3.358 7.5 7.5 7.5s7.5-3.358 7.5-7.5v-6.102h23.667v15.102c0 7.443-6.056 13.5-13.5 13.5z"/>
    <path fill="#34150C" d="M413.119 94.146h29.333c4.143 0 7.5-3.358 7.5-7.5s-3.357-7.5-7.5-7.5h-29.333c-4.143 0-7.5 3.358-7.5 7.5s3.358 7.5 7.5 7.5z"/>
  </g>
</svg>
